<svg width="24" height="24" viewBox="0 0 24 24" fill="none" xmlns="http://www.w3.org/2000/svg">
<g clip-path="url(#clip0_1_65)">
<path d="M12 24C18.6274 24 24 18.6274 24 12C24 5.37258 18.6274 0 12 0C5.37258 0 0 5.37258 0 12C0 18.6274 5.37258 24 12 24Z" fill="#F48024"/>
<path d="M9.40147 9.39501L14.4885 12.3954L15.1291 11.3093L10.042 8.30896L9.40147 9.39501Z" fill="white"/>
<path d="M8.37113 12.4247L14.0748 13.958L14.4021 12.7403L8.69847 11.2071L8.37113 12.4247Z" fill="white"/>
<path d="M8.05944 15.1062L13.9409 15.6484L14.0566 14.3927L8.17519 13.8506L8.05944 15.1062Z" fill="white"/>
<path d="M13.8844 16.0031H7.97812V17.2641H13.8844V16.0031Z" fill="white"/>
<path d="M15.8953 18.9656C15.8953 18.9656 15.8953 19.2609 15.8859 19.2609V19.2656H6.43594C6.43594 19.2656 6.14063 19.2656 6.14063 19.2609H6.13126V13.1156H7.13907V18.2719H14.8875V13.1156H15.8953V18.9656Z" fill="white"/>
<path d="M16.3916 10.3723L13.064 5.49255L12.0222 6.20297L15.3498 11.0827L16.3916 10.3723Z" fill="white"/>
<path d="M17.8692 10.0858L16.8593 4.26642L15.6169 4.48204L16.6268 10.3015L17.8692 10.0858Z" fill="white"/>
</g>
<defs>
<clipPath id="clip0_1_65">
<rect width="24" height="24" fill="white"/>
</clipPath>
</defs>
</svg>
